<?xml version="1.0" encoding="UTF-8" standalone="no"?>
<!-- Created with Inkscape (http://www.inkscape.org/) -->

<svg
   xmlns:dc="http://purl.org/dc/elements/1.1/"
   xmlns:cc="http://creativecommons.org/ns#"
   xmlns:rdf="http://www.w3.org/1999/02/22-rdf-syntax-ns#"
   xmlns:svg="http://www.w3.org/2000/svg"
   xmlns="http://www.w3.org/2000/svg"
   xmlns:sodipodi="http://sodipodi.sourceforge.net/DTD/sodipodi-0.dtd"
   xmlns:inkscape="http://www.inkscape.org/namespaces/inkscape"
   id="svg2"
   version="1.1"
   inkscape:version="0.48.4 r9939"
   width="232.975"
   height="62.7"
   xml:space="preserve"
   sodipodi:docname="nodebr.svg"><metadata
     id="metadata8"><rdf:RDF><cc:Work
         rdf:about=""><dc:format>image/svg+xml</dc:format><dc:type
           rdf:resource="http://purl.org/dc/dcmitype/StillImage" /><dc:title></dc:title></cc:Work></rdf:RDF></metadata><defs
     id="defs6" /><sodipodi:namedview
     pagecolor="#ffffff"
     bordercolor="#666666"
     borderopacity="1"
     objecttolerance="10"
     gridtolerance="10"
     guidetolerance="10"
     inkscape:pageopacity="0"
     inkscape:pageshadow="2"
     inkscape:window-width="1920"
     inkscape:window-height="1028"
     id="namedview4"
     showgrid="false"
     inkscape:zoom="4"
     inkscape:cx="124.41797"
     inkscape:cy="3.9980091"
     inkscape:window-x="0"
     inkscape:window-y="24"
     inkscape:window-maximized="1"
     inkscape:current-layer="text3036" /><g
     id="g10"
     inkscape:groupmode="layer"
     inkscape:label="ink_ext_XXXXXX"
     transform="matrix(1.25,0,0,-1.25,0,62.7)"><g
       id="g12"
       transform="scale(0.1,0.1)"><path
         d="m 279.48,235.035 c 0,5.418 -2.847,10.399 -7.527,13.086 l -124.687,71.758 c -2.11,1.238 -4.473,1.883 -6.868,1.98 -0.21,0 -1.113,0 -1.289,0 -2.379,-0.097 -4.746,-0.742 -6.882,-1.98 L 7.53906,248.121 C 2.89063,245.434 0,240.453 0,235.035 L 0.273438,41.8125 c 0,-2.6875 1.394532,-5.1875 3.757812,-6.5039 2.31641,-1.3867 5.17578,-1.3867 7.48435,0 l 74.0977,42.4297 c 4.6875,2.7851 7.543,7.6953 7.543,13.0664 l 0,90.2733 c 0,5.383 2.8515,10.363 7.5197,13.039 l 31.551,18.172 c 2.351,1.359 4.921,2.024 7.546,2.024 2.571,0 5.207,-0.665 7.493,-2.024 l 31.543,-18.172 c 4.668,-2.676 7.531,-7.656 7.531,-13.039 l 0,-90.2733 c 0,-5.3711 2.89,-10.3125 7.547,-13.0664 l 74.082,-42.4297 c 2.324,-1.3867 5.222,-1.3867 7.527,0 2.297,1.3164 3.742,3.8164 3.742,6.5039 l 0.242,193.2225"
         style="fill:#404137;fill-opacity:1;fill-rule:evenodd;stroke:none"
         id="path14" /><path
         d="m 933.711,134.426 c 0,-1.344 -0.719,-2.59 -1.887,-3.258 L 889,106.48 c -1.164,-0.667 -2.598,-0.667 -3.762,0 l -42.828,24.688 c -1.164,0.668 -1.883,1.914 -1.883,3.258 l 0,49.453 c 0,1.34 0.719,2.586 1.879,3.262 l 42.828,24.734 c 1.168,0.676 2.602,0.676 3.77,0 l 42.828,-24.734 c 1.16,-0.676 1.879,-1.922 1.879,-3.262 l 0,-49.453 z m 11.57,366.222 c -2.332,1.301 -5.179,1.27 -7.484,-0.082 -2.301,-1.351 -3.715,-3.824 -3.715,-6.492 l 0,-191.355 c 0,-1.879 -1.008,-3.621 -2.633,-4.563 -1.629,-0.945 -3.64,-0.945 -5.273,0 l -31.231,17.992 c -4.656,2.684 -10.39,2.68 -15.047,-0.003 L 755.16,244.156 c -4.664,-2.691 -7.531,-7.66 -7.531,-13.043 l 0,-144.0036 c 0,-5.3789 2.867,-10.3516 7.527,-13.0469 L 879.887,2.02344 c 4.664,-2.691409 10.406,-2.691409 15.07,0 L 1019.71,74.0625 c 4.66,2.6953 7.53,7.668 7.53,13.0469 l 0,358.9646 c 0,5.461 -2.96,10.492 -7.73,13.156 l -74.229,41.418"
         style="fill:#404137;fill-opacity:1;fill-rule:evenodd;stroke:none"
         id="path16" /><path
         d="m 1391.55,185.172 c 4.64,2.695 7.49,7.656 7.49,13.023 l 0,34.895 c 0,5.367 -2.85,10.332 -7.5,13.027 l -123.93,71.961 c -4.67,2.707 -10.42,2.711 -15.1,0.02 l -124.69,-71.989 c -4.66,-2.691 -7.53,-7.66 -7.53,-13.043 l 0,-143.9644 c 0,-5.4141 2.91,-10.4102 7.61,-13.086 L 1251.82,5.40625 c 4.57,-2.60937 10.17,-2.63672 14.77,-0.08203 l 74.95,41.66018 c 2.38,1.3203 3.86,3.8164 3.87,6.5312 0.02,2.7149 -1.43,5.2305 -3.78,6.5821 l -125.48,72.0233 c -2.35,1.34 -3.79,3.836 -3.79,6.531 l 0,45.118 c 0,2.691 1.44,5.179 3.77,6.523 l 39.06,22.516 c 2.32,1.343 5.19,1.343 7.52,0 l 39.07,-22.516 c 2.33,-1.344 3.77,-3.832 3.77,-6.523 l 0,-35.497 c 0,-2.695 1.44,-5.187 3.77,-6.531 2.34,-1.347 5.21,-1.336 7.54,0.016 l 74.69,43.414"
         style="fill:#404137;fill-opacity:1;fill-rule:evenodd;stroke:none"
         id="path18" /><path
         d="m 506.301,318.852 c 4.656,2.691 10.398,2.691 15.054,0 l 124.723,-71.973 c 4.664,-2.688 7.535,-7.66 7.535,-13.047 l 0,-144.0547 c 0,-5.3828 -2.871,-10.3515 -7.527,-13.0468 L 521.363,4.69922 c -4.664,-2.69141 -10.406,-2.69141 -15.07,0 L 381.602,76.7305 c -4.661,2.6953 -7.532,7.664 -7.532,13.0468 l 0,144.0627 c 0,5.379 2.871,10.351 7.535,13.039 l 124.696,71.973"
         style="fill:#83cd29;fill-opacity:1;fill-rule:evenodd;stroke:none"
         id="path20" /><path
         d="m 1633.71,2.64063 c -4.3,0 -8.57,1.125 -12.33,3.30078 l -39.27,23.23439 c -5.86,3.2812 -3,4.4414 -1.07,5.1172 7.83,2.7148 9.41,3.3398 17.76,8.0742 0.87,0.4883 -5.2437,3.802015 -4.3437,3.274615 L 1631.88,24.2344 c 1.1,-0.6055 2.64,-0.6055 3.65,0 l 117.6,67.8789 c 1.1,0.625 1.8,1.8867 1.8,3.1836 l 0,135.7231 c 0,1.328 -0.7,2.57 -1.82,3.242 l -117.56,67.824 c -1.09,0.633 -2.53,0.633 -3.63,0 l -117.53,-67.844 c -1.14,-0.652 -1.86,-1.933 -1.86,-3.222 l 0,-135.7231 c 0,-1.2969 0.72,-2.5274 1.85,-3.1446 l 88.0425,-50.896111 c -2.4048,-5.617288 20.0773,-24.595438 8.0523,-27.672222 L 1503.77,73.8438 c -7.62,4.4023 -12.33,12.6367 -12.33,21.4531 l 0,135.7231 c 0,8.82 4.71,17.05 12.33,21.437 l 117.61,67.957 c 7.44,4.211 17.33,4.211 24.71,0 l 117.6,-67.957 c 7.62,-4.406 12.35,-12.617 12.35,-21.437 l 0,-135.7231 c 0,-8.8164 -4.73,-17.0196 -12.35,-21.4531 L 1646.09,5.94141 c -3.76,-2.17578 -8.02,-3.30078 -12.38,-3.30078"
         style="fill:#83cd29;fill-opacity:1;fill-rule:nonzero;stroke:none"
         id="path22"
         inkscape:connector-curvature="0"
         sodipodi:nodetypes="cccccccccssccccssccccssccccssccc" /><path
         d="m 1258.22,191.914 c 0.9,0.52 2,0.52 2.89,0 l 23.94,-13.809 c 0.89,-0.515 1.44,-1.468 1.44,-2.503 l 0,-27.637 c 0,-1.035 -0.55,-1.988 -1.44,-2.504 l -23.94,-13.809 c -0.89,-0.519 -1.99,-0.519 -2.89,0 l -23.91,13.809 c -0.9,0.516 -1.45,1.469 -1.45,2.504 l 0,27.637 c 0,1.035 0.55,1.988 1.45,2.503 l 23.91,13.809"
         style="fill:#83cd29;fill-opacity:1;fill-rule:evenodd;stroke:none"
         id="path30" /><g
         transform="matrix(1.0765414,0,0,-1.0765414,-119.84286,-17.484394)"
         style="font-size:226.91244507px;font-style:normal;font-variant:normal;font-weight:normal;font-stretch:normal;text-align:start;line-height:125%;letter-spacing:0px;word-spacing:0px;writing-mode:lr-tb;text-anchor:start;fill:#83cd29;fill-opacity:1;stroke:none;font-family:UnDinaru;-inkscape-font-specification:UnDinaru"
         id="text3036"><path
           d="m 1569.2478,-248.0536 c -7.2732,0 -9.0951,0.75771 -9.0951,4.65831 l 0,140.04125 c 0,7.516736 0.7924,9.186705 7.2008,9.186705 55.3777,0 86.0107,-1.664355 86.0107,-55.105035 0,-48.12953 -30.0474,-47.91601 -74.5471,-47.91601 l 0,-46.20691 c 0,-3.01707 -2.2962,-4.65831 -9.5693,-4.65831 z m 101.3648,43.38068 c -8.1023,0 -8.9029,2.35439 -8.9029,3.97311 l 0,103.895284 c 0,1.951848 1.4818,2.637191 8.8172,2.637191 7.3354,0 8.884,-0.528632 8.884,-2.637191 l 0,-58.980954 c 0,-12.51216 4.9649,-21.55092 14.5643,-27.11199 1.655,-0.92674 3.7773,-1.81202 7.8424,-3.13692 4.0648,-1.32491 4.6068,-1.63613 8.0663,-2.46473 4.6593,-1.11595 4.2573,-2.99157 4.2573,-7.39418 0,-4.48965 -0.499,-7.74898 -5.9402,-6.71349 -3.1317,0.66309 -11.7185,1.68266 -18.2589,5.58629 -5.2979,3.16203 -6.692,6.07256 -10.5312,10.76205 l 0,-14.44136 c 0,-2.07715 -0.6961,-3.97311 -8.7983,-3.97311 z m -34.5848,55.40055 c 0,22.00131 -2.4639,39.34439 -57.2107,39.34439 0.1996,-18.64368 0,-52.84852 0,-70.1242 57.4931,0 57.2107,8.7785 57.2107,30.77981 z"
           id="path3041"
           inkscape:connector-curvature="0"
           style="fill:#83cd29;fill-opacity:1"
           sodipodi:nodetypes="zsccccczzcczcsccsccscczzccz" /></g></g></g></svg>